<svg width="31" height="24" viewBox="0 0 31 24" fill="none" xmlns="http://www.w3.org/2000/svg">
<g clip-path="url(#clip0_1027_808)">
<path d="M9.601 18.8197L10.9503 16.3604C9.94699 15.6279 9.16276 14.7035 8.59766 13.5872C8.03255 12.4709 7.75 11.2907 7.75 10.0465C7.75 8.6395 8.10175 7.33136 8.80525 6.12206C6.16425 7.48252 3.96726 9.53485 2.21429 12.279C4.14025 15.279 6.60249 17.4593 9.601 18.8197ZM16.3304 5.58136C16.3304 5.3488 16.2496 5.15113 16.0882 4.98834C15.9267 4.82555 15.7307 4.74415 15.5 4.74415C14.0584 4.74415 12.8215 5.2645 11.7893 6.3052C10.7572 7.3459 10.2411 8.59299 10.2411 10.0465C10.2411 10.279 10.3218 10.4767 10.4833 10.6395C10.6447 10.8023 10.8408 10.8837 11.0714 10.8837C11.3021 10.8837 11.4981 10.8023 11.6596 10.6395C11.8211 10.4767 11.9018 10.279 11.9018 10.0465C11.9018 9.04648 12.2535 8.19183 12.957 7.48252C13.6605 6.77322 14.5082 6.41857 15.5 6.41857C15.7307 6.41857 15.9267 6.33718 16.0882 6.17438C16.2496 6.01159 16.3304 5.81392 16.3304 5.58136ZM22.6099 2.24997C22.6099 2.33136 22.6042 2.38369 22.5926 2.40694C21.3702 4.60462 19.548 7.90113 17.1261 12.2965C14.7042 16.6918 12.8878 19.9825 11.6769 22.1686L10.8292 23.7209C10.7139 23.9069 10.5525 24 10.3449 24C10.2065 24 9.43378 23.593 8.02679 22.779C7.84226 22.6628 7.75 22.5 7.75 22.2907C7.75 22.1511 8.00372 21.6453 8.51116 20.7732C6.86198 20.0174 5.34254 19.0116 3.95285 17.7558C2.56315 16.5 1.36086 15.0755 0.345982 13.4825C0.115327 13.1221 0 12.7209 0 12.279C0 11.8372 0.115327 11.436 0.345982 11.0755C2.11049 8.34299 4.30171 6.18601 6.91964 4.60462C9.53757 3.02322 12.3977 2.23252 15.5 2.23252C16.5264 2.23252 17.5644 2.33136 18.6138 2.52904L19.548 0.837175C19.6633 0.651129 19.8248 0.558105 20.0324 0.558105C20.09 0.558105 20.1938 0.592989 20.3437 0.662757C20.4937 0.732524 20.6724 0.82264 20.88 0.933105C21.0876 1.04357 21.2779 1.15113 21.4509 1.25578C21.6239 1.36043 21.8055 1.46799 21.9958 1.57845C22.1861 1.68892 22.2985 1.75578 22.3331 1.77904C22.5177 1.89531 22.6099 2.05229 22.6099 2.24997ZM23.25 10.0465C23.25 11.6628 22.7945 13.1366 21.8834 14.468C20.9723 15.7994 19.7671 16.7558 18.2679 17.3372L23.1116 8.58136C23.2039 9.10462 23.25 9.59299 23.25 10.0465ZM31 12.279C31 12.686 30.8847 13.0872 30.654 13.4825C30.2042 14.2267 29.5757 15.0697 28.7684 16.0116C27.0385 18.0116 25.0347 19.5639 22.757 20.6686C20.4793 21.7732 18.0603 22.3255 15.5 22.3255L16.7801 20.0232C19.2251 19.8139 21.4884 19.0174 23.57 17.6337C25.6517 16.25 27.3903 14.4651 28.7857 12.279C27.4594 10.1976 25.8333 8.48834 23.9074 7.15113L24.9972 5.19764C26.0928 5.94183 27.1452 6.83136 28.1543 7.86625C29.1634 8.90113 29.9967 9.9709 30.654 11.0755C30.8847 11.4709 31 11.8721 31 12.279Z" fill="#494949"/>
</g>
<defs>
<clipPath id="clip0_1027_808">
<rect width="31" height="24" fill="#494949"/>
</clipPath>
</defs>
</svg>
