<svg width="31" height="31" viewBox="0 0 31 31" fill="none" xmlns="http://www.w3.org/2000/svg">
<path d="M15.5007 2.51855C8.37065 2.51855 2.58398 8.30522 2.58398 15.4352C2.58398 22.5652 8.37065 28.3519 15.5007 28.3519H21.959V25.7686H15.5007C9.89482 25.7686 5.16732 21.0411 5.16732 15.4352C5.16732 9.82939 9.89482 5.10189 15.5007 5.10189C21.1065 5.10189 25.834 9.82939 25.834 15.4352V17.2823C25.834 18.3027 24.9169 19.3102 23.8965 19.3102C22.8761 19.3102 21.959 18.3027 21.959 17.2823V15.4352C21.959 11.8702 19.0657 8.97689 15.5007 8.97689C11.9357 8.97689 9.04232 11.8702 9.04232 15.4352C9.04232 19.0002 11.9357 21.8936 15.5007 21.8936C17.2832 21.8936 18.9107 21.1702 20.0732 19.9948C20.9127 21.1444 22.3594 21.8936 23.8965 21.8936C26.4411 21.8936 28.4173 19.8269 28.4173 17.2823V15.4352C28.4173 8.30522 22.6307 2.51855 15.5007 2.51855ZM15.5007 19.3102C13.3565 19.3102 11.6257 17.5794 11.6257 15.4352C11.6257 13.2911 13.3565 11.5602 15.5007 11.5602C17.6448 11.5602 19.3757 13.2911 19.3757 15.4352C19.3757 17.5794 17.6448 19.3102 15.5007 19.3102Z" fill="currentColor"/>
</svg>
