<svg width="31" height="20" viewBox="0 0 31 20" fill="none" xmlns="http://www.w3.org/2000/svg">
<g clip-path="url(#clip0_921_729)">
<path d="M28.7857 10.1002C27.0327 7.39603 24.8358 5.37363 22.1948 4.03301C22.8983 5.22467 23.25 6.51374 23.25 7.9002C23.25 10.02 22.4917 11.8333 20.9752 13.34C19.4586 14.8468 17.6336 15.6002 15.5 15.6002C13.3664 15.6002 11.5414 14.8468 10.0248 13.34C8.50828 11.8333 7.75 10.02 7.75 7.9002C7.75 6.51374 8.10175 5.22467 8.80525 4.03301C6.16425 5.37363 3.96726 7.39603 2.21429 10.1002C3.74814 12.4492 5.67122 14.3197 7.98354 15.7119C10.2959 17.1041 12.8013 17.8002 15.5 17.8002C18.1987 17.8002 20.7041 17.1041 23.0165 15.7119C25.3288 14.3197 27.2519 12.4492 28.7857 10.1002ZM16.3304 3.5002C16.3304 3.27103 16.2496 3.07624 16.0882 2.91582C15.9267 2.7554 15.7307 2.6752 15.5 2.6752C14.0584 2.6752 12.8215 3.18796 11.7893 4.21348C10.7572 5.239 10.2411 6.4679 10.2411 7.9002C10.2411 8.12936 10.3218 8.32415 10.4833 8.48457C10.6447 8.64499 10.8408 8.7252 11.0714 8.7252C11.3021 8.7252 11.4981 8.64499 11.6596 8.48457C11.8211 8.32415 11.9018 8.12936 11.9018 7.9002C11.9018 6.91478 12.2535 6.07259 12.957 5.37363C13.6605 4.67467 14.5082 4.3252 15.5 4.3252C15.7307 4.3252 15.9267 4.24499 16.0882 4.08457C16.2496 3.92415 16.3304 3.72936 16.3304 3.5002ZM31 10.1002C31 10.4898 30.8847 10.8851 30.654 11.2861C29.0394 13.9215 26.8684 16.0327 24.1409 17.6197C21.4134 19.2067 18.5331 20.0002 15.5 20.0002C12.4669 20.0002 9.58659 19.2038 6.8591 17.6111C4.1316 16.0184 1.96057 13.9101 0.345982 11.2861C0.115327 10.8851 0 10.4898 0 10.1002C0 9.71061 0.115327 9.3153 0.345982 8.91426C1.96057 6.2903 4.1316 4.18197 6.8591 2.58926C9.58659 0.99655 12.4669 0.200195 15.5 0.200195C18.5331 0.200195 21.4134 0.99655 24.1409 2.58926C26.8684 4.18197 29.0394 6.2903 30.654 8.91426C30.8847 9.3153 31 9.71061 31 10.1002Z" fill="#494949"/>
</g>
<defs>
<clipPath id="clip0_921_729">
<rect width="31" height="20" fill="#494949"/>
</clipPath>
</defs>
</svg>
